<?xml version="1.0" standalone="no"?>
<!DOCTYPE svg PUBLIC "-//W3C//DTD SVG 20010904//EN"
 "http://www.w3.org/TR/2001/REC-SVG-20010904/DTD/svg10.dtd">
<svg version="1.0" xmlns="http://www.w3.org/2000/svg"
 width="1102.000000pt" height="1002.000000pt" viewBox="0 0 1102.000000 1002.000000"
 preserveAspectRatio="xMidYMid meet">

<g transform="translate(0.000000,1002.000000) scale(0.100000,-0.100000)"
fill="#000000" stroke="none">
<path d="M7182 8759 l-102 -101 104 -336 c58 -185 119 -385 137 -444 18 -60
36 -108 39 -108 3 0 44 35 89 79 l84 79 -32 93 -31 94 175 175 175 175 97 -33
98 -32 82 82 c46 45 79 85 75 89 -8 8 -864 289 -878 289 -5 0 -55 -46 -112
-101z m300 -177 l167 -58 -114 -114 c-63 -63 -117 -112 -120 -109 -9 10 -113
339 -106 339 3 0 81 -26 173 -58z"/>
<path d="M8600 8372 c-8 -2 -51 -39 -95 -81 -79 -75 -1020 -1000 -1675 -1646
-470 -463 -876 -863 -1610 -1585 -1548 -1522 -1715 -1690 -1777 -1780 -115
-170 -190 -343 -235 -547 -32 -142 -32 -444 0 -583 33 -143 68 -244 122 -352
300 -601 948 -917 1606 -783 373 76 729 323 932 646 152 241 224 495 223 789
-1 327 -93 602 -290 868 -339 457 -941 675 -1498 542 -43 -10 -79 -17 -80 -16
-2 2 243 245 544 541 636 626 1075 1057 1468 1445 154 151 534 525 845 830
520 510 713 700 1383 1360 222 219 237 236 237 269 0 20 -7 44 -14 54 -15 20
-63 36 -86 29z m-3660 -4675 c507 -132 867 -510 967 -1015 24 -123 24 -366 -1
-487 -107 -518 -496 -909 -1018 -1021 -117 -26 -381 -26 -498 -1 -403 86 -728
334 -909 696 -90 179 -131 356 -131 572 0 268 66 492 210 714 65 99 259 294
356 358 151 99 326 170 499 202 128 23 403 14 525 -18z"/>
<path d="M6724 8237 c-73 -25 -162 -78 -231 -141 -136 -122 -202 -209 -239
-315 -53 -150 -15 -279 123 -416 166 -164 346 -174 549 -30 52 37 65 43 70 31
4 -11 20 -16 53 -16 44 0 50 4 80 40 33 42 67 52 78 24 10 -26 -26 -80 -83
-128 l-53 -43 36 -36 c26 -28 39 -34 51 -28 32 17 149 146 171 188 81 160 -83
268 -188 123 -23 -33 -31 -37 -40 -26 -9 11 0 29 43 87 110 146 135 292 71
421 -15 32 -37 65 -47 75 -18 16 -22 14 -94 -58 l-75 -75 20 -44 c11 -25 21
-61 21 -80 0 -113 -181 -310 -312 -339 -86 -20 -189 35 -249 132 -67 106 -38
206 95 335 116 113 201 143 290 103 58 -25 60 -24 146 64 l65 66 -25 19 c-14
11 -49 32 -79 47 -64 32 -181 41 -247 20z"/>
<path d="M5941 7546 l-74 -74 216 -219 c119 -120 210 -219 204 -221 -7 -1
-194 9 -417 22 l-405 24 -103 -101 c-56 -56 -101 -105 -100 -108 5 -12 570
-589 577 -589 3 1 40 33 83 73 l76 72 -214 219 c-117 121 -212 221 -210 223 1
1 186 -8 411 -21 l409 -25 45 39 c25 21 75 68 110 103 l63 65 -288 293 c-159
162 -293 295 -299 297 -5 1 -43 -31 -84 -72z"/>
<path d="M935 7155 c-16 -15 -25 -36 -25 -55 0 -19 9 -40 25 -55 l24 -25 918
0 918 0 -775 -775 c-550 -549 -776 -781 -778 -799 -3 -20 6 -32 39 -55 23 -17
51 -31 61 -31 11 0 47 25 80 55 410 370 1024 438 1501 165 276 -157 489 -415
587 -708 51 -152 64 -241 65 -417 0 -117 -5 -183 -18 -245 -59 -273 -181 -495
-376 -683 -188 -180 -417 -298 -666 -342 -119 -21 -343 -21 -455 0 -265 50
-498 173 -686 362 -92 93 -190 226 -244 332 -42 84 -97 255 -115 355 -18 103
-20 316 -4 417 15 96 9 111 -49 138 -84 39 -100 17 -123 -169 -15 -123 -5
-337 21 -458 62 -290 187 -519 399 -733 269 -271 588 -410 971 -426 162 -6
272 5 423 43 459 115 847 469 1007 919 94 267 110 557 45 830 -130 546 -565
969 -1125 1091 -119 26 -469 27 -580 1 -41 -10 -88 -20 -105 -24 -24 -4 103
128 630 656 l660 661 -1113 0 -1113 0 -24 -25z"/>
<path d="M9746 6860 c-112 -29 -234 -130 -284 -237 -24 -52 -27 -69 -27 -168
0 -108 1 -113 37 -187 45 -90 103 -148 193 -190 279 -130 593 70 595 378 0 69
-32 171 -74 231 -44 65 -122 126 -193 153 -66 25 -187 35 -247 20z m228 -129
c234 -114 233 -443 -2 -558 -105 -51 -242 -31 -339 51 -18 15 -47 56 -64 91
-80 163 -6 358 161 424 72 28 176 24 244 -8z"/>
<path d="M4812 6437 c-56 -56 -102 -107 -102 -112 -1 -17 263 -869 271 -879 5
-5 44 26 91 71 l82 81 -27 89 c-15 48 -27 93 -27 99 0 16 339 344 354 344 7 0
51 -13 98 -29 l86 -29 83 84 c46 46 81 85 78 88 -2 2 -200 68 -439 146 -239
78 -438 144 -441 146 -3 1 -51 -43 -107 -99z m296 -184 l163 -56 -113 -114
c-62 -62 -115 -113 -118 -113 -3 0 -27 71 -54 158 -27 86 -51 163 -54 170 -2
6 0 12 4 12 5 0 82 -25 172 -57z"/>
<path d="M7930 6024 c-779 -104 -1445 -667 -1674 -1415 -95 -313 -113 -671
-50 -994 102 -521 418 -996 861 -1293 262 -175 556 -285 878 -328 161 -22 454
-14 611 15 738 138 1332 650 1568 1352 191 570 122 1193 -190 1707 -100 165
-265 359 -402 475 l-82 69 55 71 c34 45 49 73 41 75 -15 3 -398 -47 -405 -53
-4 -5 48 -417 54 -423 1 -1 36 42 76 97 41 55 77 100 81 101 3 0 48 -38 100
-84 286 -254 497 -622 578 -1006 67 -318 45 -668 -61 -979 -363 -1061 -1558
-1569 -2569 -1090 -813 386 -1233 1284 -1010 2159 83 327 276 653 520 884 256
240 564 403 900 474 264 57 540 55 795 -5 161 -37 166 -38 198 -13 21 17 27
30 27 60 0 57 -25 75 -149 104 -231 55 -521 70 -751 40z"/>
<path d="M3821 5466 l-74 -75 191 -198 c105 -109 236 -243 291 -298 l101 -99
62 59 c35 33 173 169 308 302 l245 242 -60 61 c-33 33 -64 60 -69 60 -5 0
-110 -100 -234 -222 l-226 -222 -225 232 c-125 128 -228 232 -231 232 -3 0
-39 -34 -79 -74z"/>
</g>
</svg>
